<?xml version="1.0" standalone="no"?><!DOCTYPE svg PUBLIC "-//W3C//DTD SVG 1.1//EN" "http://www.w3.org/Graphics/SVG/1.1/DTD/svg11.dtd"><svg t="1718803261359" class="icon" viewBox="0 0 1024 1024" version="1.1" xmlns="http://www.w3.org/2000/svg" p-id="5580" data-spm-anchor-id="a313x.search_index.0.i2.1f413a81l0BwMX" xmlns:xlink="http://www.w3.org/1999/xlink" width="200" height="200"><path d="M507.090044 517.411876m-499.864145 0a499.864145 499.864145 0 1 0 999.72829 0 499.864145 499.864145 0 1 0-999.72829 0Z" fill="#F0F0F0" p-id="5581"></path><path d="M842.426325 205.980389c91.942753-2.717003 195.886277 149.402943 128.719048 237.241973-91.30583 103.488003-176.722131 97.92903-300.910153 220.948014l-79.442119-57.544844c48.285264-168.740429 110.187795-324.032901 251.633224-400.645143z" fill="#BCE6B8" p-id="5582"></path><path d="M670.223127 688.35332a24.13457 24.13457 0 0 1-14.18163-4.599556l-79.442119-57.544844a24.191006 24.191006 0 0 1-9.066084-26.246899c20.308996-70.956522 49.240649-162.371193 93.071479-240.087974 45.310266-80.337037 101.0169-137.631949 170.300489-175.162071a24.17085 24.17085 0 0 1 10.807547-2.9105c57.125603-1.588278 120.92278 45.032116 154.300805 112.578274 29.346863 59.383054 27.234534 120.515633-5.655721 163.532168-0.34668 0.447459-0.705453 0.886856-1.080351 1.310128-48.136111 54.557753-94.538822 80.429753-143.67063 107.817471-48.309451 26.936228-98.263616 54.783498-158.356155 114.307643a24.13457 24.13457 0 0 1-17.02763 7.00616z m-51.465852-91.34211l49.280962 35.695943c58.455887-54.646438 109.010695-82.832326 154.018624-107.922281 47.156538-26.28721 87.919653-49.014904 130.359731-96.905114 30.229687-40.355967 10.267371-91.769413 0.233808-112.074379-23.751609-48.055488-66.977764-83.356377-104.116864-85.569486-119.685213 67.618719-179.475415 195.620221-229.776261 366.775317z" fill="#666666" p-id="5583"></path><path d="M645.350854 98.711156C570.580853 34.688234 417.001625 0.354823 344.47295 114.372222c-80.183853 177.129279 8.187291 282.826358 76.805739 428.577068l81.207768 8.364662c11.508969-162.67353-9.404702-344.450739 142.864397-452.602796z" fill="#BCE6B8" p-id="5584"></path><path d="M502.486457 575.500927c-0.822357 0-1.652777-0.044343-2.479165-0.124966l-81.207768-8.364662a24.199068 24.199068 0 0 1-19.406016-13.758358c-11.093759-23.570207-22.85266-46.342244-34.228601-68.364484C306.25753 370.814622 250.615395 263.06568 322.442648 104.399126c0.471646-1.04004 1.011822-2.043799 1.624558-3.007247 35.26864-55.444608 92.527272-85.984695 161.222312-85.984695 61.660661 0 129.017355 24.880335 175.790932 64.929933a24.203099 24.203099 0 0 1 8.433192 19.466484 24.195037 24.195037 0 0 1-10.158529 18.62397c-118.427491 84.114236-123.494662 215.876812-128.856108 355.379221-0.999728 26.073559-2.039768 53.038004-3.890072 79.216373a24.195037 24.195037 0 0 1-24.122476 22.477762z m-65.232271-55.222895l42.629543 4.393968c0.927167-17.551681 1.612465-35.33717 2.277606-52.723574 5.204231-135.322093 10.57777-274.945436 123.172169-372.556004-35.534697-22.102864-79.982294-35.611289-120.043986-35.611289-36.151465 0-86.077412 10.835765-119.49978 62.160525-61.084205 136.418569-15.411134 224.882429 42.359455 336.751219 9.598198 18.58769 19.466484 37.699431 29.104993 57.585155z" fill="#666666" p-id="5585"></path><path d="M494.666001 312.076554c12.927938-121.188837 56.710393-212.857471 97.775846-252.536204 97.924998-94.603321 284.56782 17.108253 269.358244 142.090415-41.343602 180.817792-194.346373 280.323006-298.447112 410.485211l-58.689695-84.114236" fill="#BCE6B8" p-id="5586"></path><path d="M563.352979 636.306982a24.211162 24.211162 0 0 1-19.837351-10.343963l-58.689694-84.114236a24.186975 24.186975 0 0 1 39.674701-27.681993l40.557525 58.129363c25.795409-29.830602 53.630585-58.32689 80.732091-86.077412 84.396417-86.407967 164.124748-168.030945 192.137296-288.699762 6.280551-57.63353-40.807458-108.768826-87.532661-132.028633-53.441121-26.601641-106.200975-22.316515-141.151154 11.452533-50.196035 48.498916-81.639102 154.333055-90.531847 237.701525a24.207131 24.207131 0 0 1-26.613734 21.486096 24.186975 24.186975 0 0 1-21.486096-26.617766c11.984646-112.35656 53.211344-217.299812 105.019844-267.362819 49.587329-47.906335 124.816883-55.557481 196.317612-19.966347 88.613013 44.10898 121.031622 123.377758 113.856153 182.373821a24.356284 24.356284 0 0 1-0.431335 2.471102c-30.781957 134.640826-119.338533 225.309732-204.984611 312.991547-35.220266 36.058748-68.493481 70.126102-98.154774 107.208766a24.174881 24.174881 0 0 1-18.881965 9.078178z" fill="#666666" p-id="5587"></path><path d="M620.071434 356.358873c-137.881881-67.126917-263.565464-90.809997-367.593642 122.889988-104.040272 213.708047-53.670897 452.844666 61.326074 508.821388 97.957248 47.696714 334.308334-51.848812 438.344575-265.548796 104.03221-213.699984 5.82503-299.0276-132.077007-366.16258z" fill="#FF8787" p-id="5588" data-spm-anchor-id="a313x.search_index.0.i0.1f413a81l0BwMX" class="selected"></path><path d="M372.408906 1023.987907h-0.020155c-26.589548 0-49.861448-4.772896-69.170717-14.173568-63.652055-30.983515-110.804563-110.772313-126.139105-213.433927-16.031933-107.341794 3.023372-223.725485 53.650741-327.717384C290.935082 344.990995 365.596242 284.874269 458.97812 284.874269c61.612287 0 124.115461 26.581485 171.679147 49.740514 141.594581 68.928847 256.950326 164.914856 143.239296 398.496534-88.645263 182.079546-273.740118 290.87659-401.487657 290.87659z m86.569214-690.739688c-74.040361 0-132.750211 49.756638-184.756238 156.590506-46.390618 95.296681-63.901987 201.626653-49.297085 299.398467 12.976312 86.887676 50.159754 153.087426 99.468933 177.088967 12.661881 6.163647 28.810718 9.291829 48.003083 9.291829 141.836451 0.016125 296.266254-136.857966 358.011569-263.678336 90.503628-185.913182 24.195037-263.186535-120.918749-333.828626-63.732679-31.027857-110.147483-44.862807-150.511513-44.862807z" fill="#666666" p-id="5589"></path><path d="M662.334142 871.642215a24.199068 24.199068 0 1 1-15.67316-42.629543c2.672661-14.568621-6.336987-69.348088-73.717868-102.71402a24.186975 24.186975 0 0 1 21.469971-43.351121c84.0578 41.629815 102.891391 111.38505 100.775031 146.040954-1.294003 21.143447-10.347994 36.195808-24.844055 41.279103a24.122476 24.122476 0 0 1-8.009919 1.374627z" fill="#666666" p-id="5590"></path><path d="M735.67308 780.501663a24.186975 24.186975 0 0 1-21.695716-34.845369c3.241055-6.599013 9.557886-45.310266-7.635022-87.766469-17.462996-43.133438-52.19146-74.310449-103.225977-92.652238a24.191006 24.191006 0 0 1 16.370551-45.523917c80.385411 28.903435 115.988637 81.219861 131.698077 120.0198 21.413535 52.880789 16.527766 106.237255 6.224115 127.23558a24.195037 24.195037 0 0 1-21.736028 13.532613z" fill="#666666" p-id="5591"></path><path d="M364.51589 1023.105082c-22.360858 0-43.012503-4.381874-61.297856-13.286712l21.171665-43.492211c40.166503 19.5592 103.745997 4.559245 170.066682-40.130223 76.104316-51.280418 143.759316-132.395469 190.500644-228.393571 90.499597-185.913182 24.191006-263.186535-120.92278-333.828626l21.171665-43.496243c141.594581 68.932878 256.946295 164.914856 143.235265 398.496534-50.405655 103.536377-123.905841 191.371375-206.959881 247.336004-55.55345 37.437406-110.002361 56.791017-156.965404 56.795048z" fill="#666666" opacity=".15" p-id="5592" data-spm-anchor-id="a313x.search_index.0.i1.1f413a81l0BwMX"></path><path d="M761.964322 484.529684a24.186975 24.186975 0 0 1-12.391794-44.97568c36.703734-21.836807 71.214516-66.360996 99.795458-128.755329 22.223799-48.51504 32.733039-90.148886 32.83785-90.564096a24.186975 24.186975 0 1 1 46.930793 11.710527c-1.878522 7.530211-47.26538 185.17951-154.824857 249.178245a24.074102 24.074102 0 0 1-12.34745 3.406333z" fill="#666666" opacity=".15" p-id="5593"></path><path d="M701.625882 427.275083a24.186975 24.186975 0 0 1-12.41598-44.959555c131.379616-78.398048 105.38668-291.138615 105.104499-293.275131a24.199068 24.199068 0 0 1 20.845141-27.109567 24.158757 24.158757 0 0 1 27.11763 20.804829c0.326524 2.487227 7.901078 61.664692-3.317647 132.645401-15.290199 96.727743-58.50023 168.817022-124.962005 208.475598a24.106352 24.106352 0 0 1-12.371638 3.418425z" fill="#666666" opacity=".15" p-id="5594"></path></svg>